<?xml version="1.0" encoding="UTF-8"?>
<svg version="1.1" viewBox="0 0 1008 1400" width="252" height="350" xmlns="http://www.w3.org/2000/svg">
<path transform="translate(0)" d="m0 0h1008v1400h-1008z" fill="#1E1E1D"/>
<path transform="translate(0)" d="m0 0h506l-7 11-16 24-9 11-12 12-11 7-3 1h-10l-9-5-8-7-6-10-2-7-7-1h-36l-28 4-25 6-18 6-21 9-25 13-19 12-23 15-27 15-22 12-25 12-5 1v2l-9 3-26 10h-3v2l-20 6-25 6-14 2h-7l1 828v166l1 48 2 14 7 20 8 15 9 10 12 11 13 8 16 8 27 9 34 7 34 4 68 6 56 5 28 3 32 6 17 4 21 6 24 9 25 11 19 11 12 9 5 4 3 4 5-1 8-7 11-8 19-12 23-12 20-8 24-8 35-9 25-5 44-6 33-4 75-6 56-6 15-2 11-3 10-4 6-3 11-7 3-3h2v-2h2v-2l5-5 7-8 6-10 12-27 5-15 2-10 1-11 1-1023h-13l-22-3-21-5-20-7-17-7-16-8-24-13-27-16-20-13-23-14-18-10-21-10-15-7-24-9-24-7-26-5-16-2-27-1-4 1-12 17-6 7-10 5h-10l-12-6-12-11-9-10-14-19-7-12-1-6h500v1400h-1008z"/>
<path transform="translate(506)" d="m0 0h2l4 10 8 12 9 12 11 13 7 7 13 8 3 1h10l10-5 11-14 7-10 4-1 27 1 28 4 25 6 30 10 21 9 16 8 21 11 23 14 20 13 15 9 21 12 18 10 21 10 20 8 19 6 26 5 23 2v1023l-2 16-4 15-9 21-7 14-7 11-8 9h-2v2h-2v2l-12 9-14 7-13 4-19 3-56 6-62 5-21 2-41 5-28 4-29 6-31 8-27 9-21 9-21 11-17 11-16 12-4 4-5-1-5-5-8-7-18-11-16-8-21-9-23-8-24-7-36-7-24-3-53-5-48-4-43-4-29-4-29-6-27-9-16-8-10-6-14-12-9-9-8-14-6-15-4-13-1-10-1-48v-994l26-4 24-6 13-4h3v-2l24-9 9-4h5v-2l18-8 20-10 23-13 18-10 34-22 21-12 25-12 19-7 27-7 24-4 9-1h36l7 1 5 12 7 9 10 7 3 1h10l10-5 12-11 10-11 25-37zm-1 47-13 14-13 13-16 9-9 3-5 1h-15l-10-3-13-8-19-19-5-1h-24l-24 4-33 11-5 3 3 1 8 2-1 4-4 7-7 1-2-2-3-7-1-2-7 2-19 11-11 7-13 8-17 11-21 12-26 14-19 10-19 9-2 10-4 7-5-2-6-8-11 3-19 7-22 8-4 7-5 1-2-6-5-1-1 1v113l1 1h14l-4 13h-11v102l2 1h13l-1 9-2 7-11-3-1 6-1 722 1 46 3 14 7 15 8 11 10 10 18 10 19 7 30 7 24 4 46 5 36 3 72 7 31 4 13 2 7 3 18 3 31 10 25 10 18 8 19 10 12 7 7-1 13-9 13-8 23-11 27-10 35-11 26-6 31-6 38-5 72-6 38-3 39-4 27-4 21-7 12-9 6-7 6-10 6-13 6-18 4-20v-996l-9-3-24-6-24-8-27-12-22-11-23-13-17-11-11-7-17-11-21-12-19-10-36-15-21-7-26-7-31-5-7 1-11 12-7 7-13 8-9 3h-18l-11-4-12-7-12-9-10-9-8-9z" fill="#5F5F5E"/>
<path transform="translate(312,51)" d="m0 0h11l-1 3-10 3-4 5 1 2 4 2-8 1h-3l-3 3h-3l-1 2h-2l-2 2h-5v2l-10 3v3h-3l-2 5-15 9-19 12-15 10-15 9-14 7-21 12-17 8-13 7-1 4-3 9-4 4-8-9-8 1-28 10-18 7-3 6-5 1-3-5-5 1-2 114h14l1 5-3 6h-6l-1-2-4-1v21l-1 21-1 9-1 5-2 8-3-2-3-10h-3l-2 12-1 3v7l-1 5-1 16-3 16v9l-1 5-1 138h-2v-403l30-5 15-4 11-3 6-2h3v-2l24-9 9-4h5v-2l18-8 20-10 23-13 2-1h6v-2l9-2 6-4 1-3 12-8 6-1v-2l5-2h3v-2l4-2 1-2 7-3 17-9h3v-2l8-3 3-1h3v-2l11-3 8-4z" fill="#B5B5B5"/>
<path transform="translate(54,197)" d="m0 0h1v51l-1 56h14l1 5-3 6h-6l-1-2-4-1v21l-1 21-1 9-1 5-2 8-3-2-3-10h-3l-2 12-1 3v7l-1 5-1 16-3 16v9l-1 5-1 138h-2v-240l1-8 1-45 1-8 1-2v-9l5-35 2-6 2-5h2l3 10 1 4h4l1-5z" fill="#A7A7A7"/>
<path transform="translate(167,129)" d="m0 0 1 2 2 1h-2l-1 3-4 2h-4v2l-12 6-8 5-5 1-14 7-4 3-9 3h-3v2l-9 4 3 2 5 1 1-2 1 4-26 9-8 4-2 5-5 1-3-5-5 1-1 7-1 29-2 6-4-1-4-10v-4h-2l-1 5-2 6-3 21-2 15v9l-1 4-1 5-1 45-1 8h-1v-163l30-5 15-4 11-3 6-2h3v-2l24-9 9-4h5v-2l7-3h8l3-2 4-3 8-1z" fill="#CACBCA"/>
<path transform="translate(54,197)" d="m0 0h1v51l-1 50-3 2-10-2-3 14-1 7-2 7-2 16-1 9-1 43-2-4v-55l1-8 1-45 1-8 1-2v-9l5-35 2-6 2-5h2l3 10 1 4h4l1-5z" fill="#B7B7B7"/>
<path transform="translate(312,51)" d="m0 0h11l-1 3-10 3-4 5 1 2 4 2-8 1h-3l-3 3h-3l-1 2h-2l-2 2h-5v2l-10 3v3h-3l-2 5-15 9-19 12-2-2 4-7h-5l-1 3v-4l6-3h2v-3l8-5 7-5h2v2l5-5 4-3 4-1 1-2h-2-3l-1 2-9 2v2h-3l-1 2-2 2h-6l3-4 7-3 17-9h3v-2l8-3 3-1h3v-2l11-3 8-4z" fill="#A7A7A7"/>
<path transform="translate(974,1219)" d="m0 0h1l-1 9-7 20-7 13-8 11-11 12-14 11-16 8-13 4-11 2-59 6-101 8-10 1h-9v-1l41-5 75-6 56-6 15-2 11-3 10-4 6-3 11-7 3-3h2v-2h2v-2l5-5 7-8 6-10 12-27z" fill="#1E1E1D"/>
<path transform="translate(91,230)" d="m0 0h16l1 3-4 11-4 3-5-1-4-4-1-3v-8z" fill="#60605F"/>
<path transform="translate(266,141)" d="m0 0h9l2 1-1 5-2 8-5-1-6-5-2-5z" fill="#5F5F5E"/>
<path transform="translate(130,288)" d="m0 0 7 1-1 6-2 6-4 1-4-3-1-8z" fill="#C4C5C4"/>
<path transform="translate(194,151)" d="m0 0h13l1 5-4 8-5-1-5-9z" fill="#C5C6C5"/>
<path transform="translate(161,218)" d="m0 0h5l1 3 5-2 1 4-4 5-1 4-3 1-4-8-3-2 1-4z" fill="#C6C7C6"/>
<path transform="translate(91,232)" d="m0 0h11l2 5-4 7-5-1-3-4z" fill="#B6B6B6"/>
<path transform="translate(88,358)" d="m0 0h11l2 1-1 6-3 5h-2v-2l-4-2-3-4z" fill="#C6C6C6"/>
<path transform="translate(88,355)" d="m0 0h8l7 2-1 8-3 6-5 1-6-6-2-5v-5zm0 3 1 5 4 5h2v2l3-1 3-7v-3l-2-1z" fill="#5F5F5E"/>
<path transform="translate(136,164)" d="m0 0 5 1-3 9-4 4-4-4-1-8z" fill="#C7C7C7"/>
<path transform="translate(156,347)" d="m0 0h10l2 1v7l-2 4-4-2-7-7z" fill="#C8C9C8"/>
<path transform="translate(170,342)" d="m0 0 3 1-3 9-2 3v-7h-12l2 4 8 7-2 2-11-11 1-4z" fill="#5F5F5E"/>
<path transform="translate(121,287)" d="m0 0h18l-1 7-2 7-2 2h-7l-3-4-3-9zm9 1-5 3 1 8 4 3 4-1 3-8v-4z" fill="#5F5F5E"/>
<path transform="translate(202,278)" d="m0 0 3 1-2 9-1 1h-5l-5-6 1-3 8-1z" fill="#C8C9C8"/>
<path transform="translate(301,77)" d="m0 0 5 1 2 2v5l-3 3h-5l-3-6v-3z" fill="#C4C4C4"/>
<path transform="translate(194,148)" d="m0 0 13 1 3 2-1 6-3 7-4 2-3-3h5l3-7v-5l-10 1-3-1 3 9-3-3-2-3v-5z" fill="#5F5F5E"/>
<path transform="translate(64,420)" d="m0 0 5 1-1 7-2 4-5-2-2-3 1-5z" fill="#A7A7A7"/>
<path transform="translate(190,275)" d="m0 0 14 1 2 2-1 7-1-3v-3l-11 2 2 5 1 2-4-2-3-5v-5z" fill="#5F5F5E"/>
<path transform="translate(370,68)" d="m0 0 4 1 2 2-1 5-4 2-6-3v-4z" fill="#5F5F5E"/>
<path transform="translate(228,210)" d="m0 0h12l-2 6-4 4-4-2-2-5z" fill="#C4C5C4"/>
<path transform="translate(56,304)" d="m0 0h12l1 5-3 3-8-3-3-4z" fill="#BCBCBC"/>
<path transform="translate(268,142)" d="m0 0h5l2 4-3 6-5-2-3-4 1-3z" fill="#C4C5C4"/>
<path transform="translate(129,411)" d="m0 0 8 2-2 5-2 2-4-1-2-6z" fill="#C4C5C4"/>
<path transform="translate(212,99)" d="m0 0 5 1-5 5-6 2h-5v2l-4-1z" fill="#888"/>
<path transform="translate(240,85)" d="m0 0 3 1-6 3-2 2h-4v2l-11 6-3-1 12-8 6-1v-2z" fill="#A7A7A7"/>
<path transform="translate(94,479)" d="m0 0h5l1 1v5l-2 2-5-1-1-5z" fill="#C4C4C4"/>
<path transform="translate(93,234)" d="m0 0 5 2 2 2v6l-5-1-2-3z" fill="#CACBCA"/>
<path transform="translate(94,477)" d="m0 0 6 1 2 4-2 5-7 1-3-3v-5zm0 2-2 2 1 5 5 1 2-2v-5l-1-1z" fill="#5F5F5E"/>
<path transform="translate(64,420)" d="m0 0 5 1v5l-5 2-2-4z" fill="#B3B3B3"/>
<path transform="translate(156,130)" d="m0 0h2l-2 4-5 2-1 2-4 1-4-2z" fill="#949494"/>
<path transform="translate(369,70)" d="m0 0 5 1v5h-5l-3-3z" fill="#C2C2C2"/>
<path transform="translate(99,359)" d="m0 0h2l-1 6-3 5h-2v-2l-4-2 1-2 6 1z" fill="#AFAFAF"/>
<path transform="translate(229,339)" d="m0 0 5 1v4l-5 1-1-5z" fill="#C6C7C6"/>
<path transform="translate(336,135)" d="m0 0 4 1 2 4-1 1h-5l-1-5z" fill="#7D7D7C"/>
<path transform="translate(265,270)" d="m0 0 3 2 1 6-5-1v-6z" fill="#C7C8C7"/>
<path transform="translate(161,217)" d="m0 0h8l5 2v5l-2 1v-5l-5 1-2-2z" fill="#5F5F5E"/>
<path transform="translate(110,150)" d="m0 0 3 1 1 2-10 2-4-1z" fill="#939392"/>
<path transform="translate(227,208)" d="m0 0 14 1-1 3v-2l-5 1-7-1-1 3-1-4z" fill="#5F5F5E"/>
</svg>
